<svg xmlns="http://www.w3.org/2000/svg" version="1.1" xmlns:xlink="http://www.w3.org/1999/xlink" xmlns:svgjs="http://svgjs.dev/svgjs" width="2000" height="471" viewBox="0 0 2000 471"><g transform="matrix(1,0,0,1,0.3398876404492057,0.0925178571428944)"><svg viewBox="0 0 356 84" data-background-color="#111111" preserveAspectRatio="xMidYMid meet" height="471" width="2000" xmlns="http://www.w3.org/2000/svg" xmlns:xlink="http://www.w3.org/1999/xlink"><g id="tight-bounds" transform="matrix(1,0,0,1,-0.06049999999996203,-0.01650000000000773)"><svg viewBox="0 0 356.12052 84.03274243994358" height="84.03274243994358" width="356.12052"><g><svg viewBox="0 0 356.12052 84.03274243994358" height="84.03274243994358" width="356.12052"><g><svg viewBox="0 0 356.12052 84.03274243994358" height="84.03274243994358" width="356.12052"><g><path d="M0 84.033v-84.033h356.121v84.033z" fill="#ffffff" stroke="transparent" stroke-width="0" rx="0%" data-fill-palette-color="tertiary"></path><path d="M3.283 80.749v-77.466h349.554v77.466z" fill="#111111" stroke="transparent" stroke-width="0" rx="0%" data-fill-palette-color="quaternary"></path><path d="M9.85 74.183v-64.333h336.421v64.333z" fill="#ffffff" stroke="transparent" stroke-width="0" data-fill-palette-color="tertiary"></path></g><g transform="matrix(1,0,0,1,19.69974,19.69974)"><svg viewBox="0 0 316.72104 44.63326243994358" height="44.63326243994358" width="316.72104"><g><svg viewBox="0 0 316.72104 23.52699779971791" height="23.52699779971791" width="316.72104"><g transform="matrix(1,0,0,1,0,0)"><svg width="316.72104" viewBox="0.75 -39 531.719970703125 39.5" height="23.52699779971791" data-palette-color="#111111"><path d="M38-12.75L37.35 0 0.75 0 0.75-1.15 25.9-35.9 13.25-35.9Q9.55-35.9 7.68-34.05 5.8-32.2 5.1-28.3L5.1-28.3 3.15-28.3 3.95-38.5 36.35-38.5 36.35-37.35 11.45-2.8 25.75-2.8Q28.45-2.8 30.18-3.25 31.9-3.7 32.98-4.85 34.05-6 34.65-7.9 35.25-9.8 35.7-12.75L35.7-12.75 38-12.75ZM66.05-8.65L64.9-11.65 50.75-11.65Q48.4-6.35 48.4-4.3L48.4-4.3Q48.4-2.8 49.52-2.4 50.65-2 52.9-2L52.9-2 52.9 0 39.2 0 39.2-2Q40.4-2.15 41.27-2.4 42.15-2.65 42.82-3.1 43.5-3.55 44-4.28 44.5-5 44.95-6.05L44.95-6.05 58.1-39 61.8-39 73.75-9.8Q74.8-7.25 75.52-5.8 76.25-4.35 77.07-3.58 77.9-2.8 78.97-2.5 80.05-2.2 81.75-2.05L81.75-2.05 81.75 0 62.85 0 62.85-2.05Q65.25-2.15 66.3-2.55 67.35-2.95 67.35-4.15L67.35-4.15Q67.35-4.85 67-5.95 66.65-7.05 66.05-8.65L66.05-8.65ZM57.85-29.8L51.9-14.65 63.8-14.65 58.05-29.8 57.85-29.8ZM94.65-14.65L94.65-8.05Q94.65-6.15 94.82-5 95-3.85 95.5-3.2 96-2.55 96.92-2.3 97.85-2.05 99.4-2L99.4-2 99.4 0 82.05 0 82.05-2Q83.7-2.05 84.75-2.3 85.8-2.55 86.35-3.15 86.9-3.75 87.1-4.85 87.3-5.95 87.3-7.7L87.3-7.7 87.3-30.8Q87.3-32.5 87.12-33.6 86.95-34.7 86.45-35.3 85.95-35.9 85.02-36.15 84.1-36.4 82.6-36.5L82.6-36.5 82.6-38.5 99.85-38.5 99.85-36.5Q98.15-36.45 97.12-36.2 96.1-35.95 95.55-35.3 95-34.65 94.82-33.5 94.65-32.35 94.65-30.45L94.65-30.45 94.65-19.35 107.6-33.25Q108.75-34.5 108.75-35.35L108.75-35.35Q108.75-35.9 108.02-36.2 107.3-36.5 105.35-36.5L105.35-36.5 105.35-38.5 119-38.5 119-36.55Q117.9-36.5 117.07-36.35 116.25-36.2 115.42-35.7 114.6-35.2 113.57-34.27 112.55-33.35 111.05-31.8L111.05-31.8 102.15-22.5 116.85-4.6Q117.9-3.3 119.17-2.7 120.45-2.1 122.45-2L122.45-2 122.45 0 103.95 0 103.95-2Q106-2.05 106.9-2.35 107.8-2.65 107.8-3.35L107.8-3.35Q107.8-3.6 107.72-3.83 107.65-4.05 107.47-4.38 107.3-4.7 106.95-5.18 106.6-5.65 106-6.35L106-6.35 97.15-17.25 94.65-14.65ZM147.59-8.65L146.44-11.65 132.29-11.65Q129.94-6.35 129.94-4.3L129.94-4.3Q129.94-2.8 131.07-2.4 132.19-2 134.44-2L134.44-2 134.44 0 120.74 0 120.74-2Q121.94-2.15 122.82-2.4 123.69-2.65 124.37-3.1 125.04-3.55 125.54-4.28 126.04-5 126.49-6.05L126.49-6.05 139.64-39 143.34-39 155.29-9.8Q156.34-7.25 157.07-5.8 157.79-4.35 158.62-3.58 159.44-2.8 160.52-2.5 161.59-2.2 163.29-2.05L163.29-2.05 163.29 0 144.39 0 144.39-2.05Q146.79-2.15 147.84-2.55 148.89-2.95 148.89-4.15L148.89-4.15Q148.89-4.85 148.54-5.95 148.19-7.05 147.59-8.65L147.59-8.65ZM139.39-29.8L133.44-14.65 145.34-14.65 139.59-29.8 139.39-29.8ZM199.84-12.75L199.19 0 162.59 0 162.59-1.15 187.74-35.9 175.09-35.9Q171.39-35.9 169.52-34.05 167.64-32.2 166.94-28.3L166.94-28.3 164.99-28.3 165.79-38.5 198.19-38.5 198.19-37.35 173.29-2.8 187.59-2.8Q190.29-2.8 192.02-3.25 193.74-3.7 194.82-4.85 195.89-6 196.49-7.9 197.09-9.8 197.54-12.75L197.54-12.75 199.84-12.75ZM223.59 0.5L223.59 0.5Q219.09 0.5 215.46-0.83 211.84-2.15 209.31-4.63 206.79-7.1 205.41-10.63 204.04-14.15 204.04-18.55L204.04-18.55Q204.04-23.1 205.51-26.88 206.99-30.65 209.64-33.35 212.29-36.05 215.99-37.52 219.69-39 224.19-39L224.19-39Q227.29-39 230.09-38.15 232.89-37.3 236.14-35.4L236.14-35.4 237.09-38.5 238.89-38.5 238.89-25.85 236.39-25.85Q235.39-30.55 232.36-33.15 229.34-35.75 224.79-35.75L224.79-35.75Q219.04-35.75 215.86-31.33 212.69-26.9 212.69-18.95L212.69-18.95Q212.69-11.15 215.79-7 218.89-2.85 224.79-2.85L224.79-2.85Q229.04-2.85 231.41-5.03 233.79-7.2 233.79-11.05L233.79-11.05Q233.79-13.35 232.59-14.43 231.39-15.5 228.54-15.75L228.54-15.75 228.54-17.75 244.74-17.75 244.74-15.75Q242.29-15.75 241.34-14.68 240.39-13.6 240.39-10.8L240.39-10.8 240.39-4.15Q239.29-4.15 238.54-4.08 237.79-4 237.06-3.78 236.34-3.55 235.44-3.05 234.54-2.55 233.19-1.75L233.19-1.75Q229.34 0.5 223.59 0.5ZM259.84-34L259.84-21.3Q263.04-21.3 264.99-21.5 266.94-21.7 268.01-22.33 269.09-22.95 269.54-24.15 269.99-25.35 270.24-27.4L270.24-27.4 272.09-27.4 272.09-12.75 270.24-12.75Q269.94-14.75 269.44-15.95 268.94-17.15 267.84-17.78 266.74-18.4 264.86-18.57 262.99-18.75 259.84-18.75L259.84-18.75 259.84-8.45Q259.84-6.85 260.26-5.75 260.69-4.65 261.69-3.98 262.69-3.3 264.34-3.03 265.99-2.75 268.39-2.75L268.39-2.75Q271.24-2.75 273.21-3.15 275.19-3.55 276.49-4.55 277.79-5.55 278.59-7.23 279.39-8.9 279.94-11.45L279.94-11.45 281.94-11.45 281.14 0 247.24 0 247.24-2Q248.89-2.05 249.94-2.3 250.99-2.55 251.54-3.15 252.09-3.75 252.29-4.85 252.49-5.95 252.49-7.7L252.49-7.7 252.49-30.8Q252.49-32.55 252.31-33.63 252.14-34.7 251.64-35.33 251.14-35.95 250.21-36.18 249.29-36.4 247.79-36.5L247.79-36.5 247.79-38.5 279.39-38.5 279.74-28.7 277.59-28.7Q277.29-30.8 276.64-32.18 275.99-33.55 274.84-34.38 273.69-35.2 271.86-35.52 270.04-35.85 267.39-35.85L267.39-35.85 261.74-35.85Q260.44-35.85 260.14-35.52 259.84-35.2 259.84-34L259.84-34ZM318.43-28.85L318.43-28.85Q318.43-24.7 316.03-21.9 313.63-19.1 308.38-18.15L308.38-18.15 319.98-4.85Q321.18-3.45 322.83-2.73 324.48-2 326.18-2L326.18-2 326.18 0 314.33 0 301.93-15.2Q300.68-16.7 299.76-17.23 298.83-17.75 298.03-17.75L298.03-17.75 298.03-7.95Q298.03-6.1 298.28-4.93 298.53-3.75 299.28-3.1 300.03-2.45 301.46-2.23 302.88-2 305.28-2L305.28-2 305.28 0 285.43 0 285.43-2Q287.08-2 288.11-2.23 289.13-2.45 289.71-3.08 290.28-3.7 290.48-4.83 290.68-5.95 290.68-7.7L290.68-7.7 290.68-30.8Q290.68-32.55 290.53-33.63 290.38-34.7 289.88-35.33 289.38-35.95 288.46-36.18 287.53-36.4 285.98-36.5L285.98-36.5 285.98-38.5 303.28-38.5Q310.53-38.5 314.48-35.95 318.43-33.4 318.43-28.85ZM298.03-34.85L298.03-20.75 301.28-20.75Q305.98-20.75 308.31-22.58 310.63-24.4 310.63-28.6L310.63-28.6Q310.63-31.8 308.68-33.75 306.73-35.7 303.28-35.7L303.28-35.7 298.93-35.7Q298.03-35.7 298.03-34.85L298.03-34.85ZM353.28-9.35L353.48-9.35 365.03-38.5 379.63-38.5 379.63-36.5Q377.98-36.5 376.96-36.18 375.93-35.85 375.38-35 374.83-34.15 374.66-32.68 374.48-31.2 374.48-28.95L374.48-28.95 374.48-9.55Q374.48-7.05 374.68-5.6 374.88-4.15 375.48-3.35 376.08-2.55 377.21-2.3 378.33-2.05 380.18-2L380.18-2 380.18 0 361.38 0 361.38-2Q363.23-2.05 364.36-2.33 365.48-2.6 366.11-3.35 366.73-4.1 366.93-5.48 367.13-6.85 367.13-9.2L367.13-9.2 367.13-32.6 366.88-32.6 353.43 0.5 349.73 0.5 335.83-32.6 335.63-32.6 335.63-9.55Q335.63-7.05 335.83-5.6 336.03-4.15 336.63-3.35 337.23-2.55 338.36-2.3 339.48-2.05 341.33-2L341.33-2 341.33 0 325.93 0 325.93-2Q327.78-2.05 328.93-2.33 330.08-2.6 330.71-3.35 331.33-4.1 331.53-5.48 331.73-6.85 331.73-9.2L331.73-9.2 331.73-29.3Q331.73-31.4 331.53-32.8 331.33-34.2 330.78-35.02 330.23-35.85 329.21-36.18 328.18-36.5 326.48-36.5L326.48-36.5 326.48-38.5 341.63-38.5 353.28-9.35ZM407.88-8.65L406.73-11.65 392.58-11.65Q390.23-6.35 390.23-4.3L390.23-4.3Q390.23-2.8 391.35-2.4 392.48-2 394.73-2L394.73-2 394.73 0 381.03 0 381.03-2Q382.23-2.15 383.1-2.4 383.98-2.65 384.65-3.1 385.33-3.55 385.83-4.28 386.33-5 386.78-6.05L386.78-6.05 399.93-39 403.63-39 415.58-9.8Q416.63-7.25 417.35-5.8 418.08-4.35 418.9-3.58 419.73-2.8 420.8-2.5 421.88-2.2 423.58-2.05L423.58-2.05 423.58 0 404.68 0 404.68-2.05Q407.08-2.15 408.13-2.55 409.18-2.95 409.18-4.15L409.18-4.15Q409.18-4.85 408.83-5.95 408.48-7.05 407.88-8.65L407.88-8.65ZM399.68-29.8L393.73-14.65 405.63-14.65 399.88-29.8 399.68-29.8ZM462.33 0.5L455.63 0.5 433.48-31.05 433.28-31.05 433.28-9.55Q433.28-7.05 433.45-5.6 433.63-4.15 434.2-3.35 434.78-2.55 435.8-2.3 436.83-2.05 438.48-2L438.48-2 438.48 0 423.63 0 423.63-2Q425.48-2.05 426.6-2.33 427.73-2.6 428.35-3.35 428.98-4.1 429.18-5.48 429.38-6.85 429.38-9.2L429.38-9.2 429.38-29.3Q429.38-31.4 429.18-32.77 428.98-34.15 428.43-34.95 427.88-35.75 426.85-36.08 425.83-36.4 424.13-36.5L424.13-36.5 424.13-38.5 438.08-38.5 458.23-9.6 458.43-9.6 458.43-28.95Q458.43-31.4 458.25-32.88 458.08-34.35 457.5-35.15 456.93-35.95 455.9-36.2 454.88-36.45 453.23-36.5L453.23-36.5 453.23-38.5 468.08-38.5 468.08-36.5Q466.23-36.45 465.1-36.18 463.98-35.9 463.35-35.15 462.73-34.4 462.53-33 462.33-31.6 462.33-29.3L462.33-29.3 462.33 0.5ZM488.77-2L488.77 0 470.92 0 470.92-2Q472.62-2.05 473.65-2.33 474.67-2.6 475.22-3.35 475.77-4.1 475.97-5.48 476.17-6.85 476.17-9.2L476.17-9.2 476.17-29.3Q476.17-31.4 476-32.77 475.82-34.15 475.32-34.95 474.82-35.75 473.9-36.08 472.97-36.4 471.42-36.5L471.42-36.5 471.42-38.5 488.27-38.5 488.27-36.5Q486.72-36.4 485.8-36.08 484.87-35.75 484.37-34.95 483.87-34.15 483.7-32.77 483.52-31.4 483.52-29.3L483.52-29.3 483.52-9.2Q483.52-6.85 483.7-5.48 483.87-4.1 484.45-3.35 485.02-2.6 486.05-2.33 487.07-2.05 488.77-2L488.77-2ZM516.77-8.65L515.62-11.65 501.47-11.65Q499.12-6.35 499.12-4.3L499.12-4.3Q499.12-2.8 500.25-2.4 501.37-2 503.62-2L503.62-2 503.62 0 489.92 0 489.92-2Q491.12-2.15 492-2.4 492.87-2.65 493.55-3.1 494.22-3.55 494.72-4.28 495.22-5 495.67-6.05L495.67-6.05 508.82-39 512.52-39 524.47-9.8Q525.52-7.25 526.25-5.8 526.97-4.35 527.8-3.58 528.62-2.8 529.7-2.5 530.77-2.2 532.47-2.05L532.47-2.05 532.47 0 513.57 0 513.57-2.05Q515.97-2.15 517.02-2.55 518.07-2.95 518.07-4.15L518.07-4.15Q518.07-4.85 517.72-5.95 517.37-7.05 516.77-8.65L516.77-8.65ZM508.57-29.8L502.62-14.65 514.52-14.65 508.77-29.8 508.57-29.8Z" opacity="1" transform="matrix(1,0,0,1,0,0)" fill="#111111" class="undefined-text-0" data-fill-palette-color="quaternary" id="text-0"></path></svg></g></svg></g><g transform="matrix(1,0,0,1,0,30.093577799717913)"><svg viewBox="0 0 316.72104 14.53968464022567" height="14.53968464022567" width="316.72104"><g transform="matrix(1,0,0,1,0,0)"><svg width="316.72104" viewBox="2.9000000953674316 -33.5 740.6300048828125 34" height="14.53968464022567" data-palette-color="#111111"><path d="M19.95 0.5L19.95 0.5Q14.75 0.5 10.93-1.6 7.1-3.7 5-7.38 2.9-11.05 2.9-15.7L2.9-15.7Q2.9-19.35 4.35-22.58 5.8-25.8 8.3-28.25 10.8-30.7 14-32.1 17.2-33.5 20.75-33.5L20.75-33.5Q23.3-33.5 25.08-33.18 26.85-32.85 28.23-32.33 29.6-31.8 31-31.1L31-31.1 31.45-22 30.55-22 26.55-29Q25-30.05 23.75-30.53 22.5-31 20.85-31L20.85-31Q17.6-31 15-29.2 12.4-27.4 10.9-24.15 9.4-20.9 9.4-16.65L9.4-16.65Q9.4-12.1 10.85-8.85 12.3-5.6 14.78-3.85 17.25-2.1 20.3-2.1L20.3-2.1Q22.55-2.1 24.18-2.7 25.8-3.3 27.2-4.15L27.2-4.15 31.05-10.3 31.9-10.3 31.25-2.05Q29.15-0.9 26.48-0.2 23.8 0.5 19.95 0.5ZM87.54 0L78.24 0 78.24-0.8 80.74-2.15 91.89-28.25 95.29-28.25 106.24-2.35 109.29-0.8 109.29 0 96.54 0 96.54-0.8 100.04-2.3 97.09-9.4 86.89-9.4 83.94-2.25 87.54-0.8 87.54 0ZM91.99-21.7L87.94-11.95 96.04-11.95 91.99-21.7ZM167.19 0L154.24 0 154.24-0.8 157.94-2.45 157.94-25.55 154.24-27.2 154.24-28 167.84-28Q172.44-28 175.09-26.15 177.74-24.3 177.74-21.1L177.74-21.1Q177.74-16.4 172.04-14.35L172.04-14.35 179.79-2.35 183.04-0.8 183.04 0 174.04 0 166.44-12.75 163.94-12.75 163.94-2.5 167.19-0.8 167.19 0ZM165.84-25.6L165.84-25.6 163.94-25.6 163.94-15.15 166.04-15.15Q168.74-15.15 170.14-16.57 171.54-18 171.54-20.45L171.54-20.45Q171.54-25.6 165.84-25.6ZM295.87 0L280.12 0 280.12-0.8 284.32-2.85 284.32-30.15 280.12-32.2 280.12-33 296.22-33Q301.97-33 306-31.05 310.02-29.1 312.15-25.7 314.27-22.3 314.27-18L314.27-18Q314.27-14.1 312.9-10.8 311.52-7.5 309.05-5.1 306.57-2.7 303.2-1.35 299.82 0 295.87 0L295.87 0ZM294.52-30.25L294.52-30.25 290.57-30.25 290.57-2.75 295.27-2.75Q299.22-2.75 302-4.42 304.77-6.1 306.25-9.18 307.72-12.25 307.72-16.45L307.72-16.45Q307.72-22.75 304.35-26.5 300.97-30.25 294.52-30.25ZM385.06 0L360.81 0 360.81-0.8 364.46-2.45 364.46-25.55 360.81-27.2 360.81-28 383.81-28 383.81-20.65 383.01-20.65 380.11-25.45 370.51-25.45 370.51-15.7 377.41-15.7 379.41-19.2 380.16-19.2 380.16-9.8 379.41-9.8 377.41-13.3 370.51-13.3 370.51-2.55 381.21-2.55 384.26-8.55 385.06-8.55 385.06 0ZM439.71 0L430.41 0 430.41-0.8 432.91-2.15 444.06-28.25 447.46-28.25 458.41-2.35 461.46-0.8 461.46 0 448.71 0 448.71-0.8 452.21-2.3 449.26-9.4 439.06-9.4 436.11-2.25 439.71-0.8 439.71 0ZM444.16-21.7L440.11-11.95 448.21-11.95 444.16-21.7ZM530.2 0L506.4 0 506.4-0.8 510.05-2.45 510.05-25.55 506.4-27.2 506.4-28 520.2-28 520.2-27.2 516.1-25.55 516.1-2.55 526-2.55 529.4-10.25 530.2-10.25 530.2 0ZM589.99 0L577.14 0 577.14-0.8 580.44-2.45 580.44-25.55 577.14-27.2 577.14-28 589.99-28 589.99-27.2 586.49-25.55 586.49-2.45 589.99-0.8 589.99 0ZM647.59 0L636.39 0 636.39-0.8 640.04-2.45 640.04-25.6 636.39-27.2 636.39-28 644.64-28 661.39-8.7 661.39-25.6 656.79-27.2 656.79-28 667.89-28 667.89-27.2 664.34-25.6 664.34 0.2 661.44 0.2 642.99-20.9 642.99-2.55 647.59-0.8 647.59 0ZM729.28 0.5L729.28 0.5Q725.08 0.5 721.7-1.28 718.33-3.05 716.35-6.18 714.38-9.3 714.38-13.35L714.38-13.35Q714.38-16.7 715.65-19.48 716.93-22.25 719.13-24.28 721.33-26.3 724.25-27.4 727.18-28.5 730.48-28.5L730.48-28.5Q733.83-28.5 735.88-27.93 737.93-27.35 739.78-26.45L739.78-26.45 740.13-19.15 739.38-19.15 736.08-24.4Q734.53-25.4 733.35-25.8 732.18-26.2 730.68-26.2L730.68-26.2Q727.53-26.2 725.2-24.73 722.88-23.25 721.58-20.63 720.28-18 720.28-14.65L720.28-14.65Q720.28-10.8 721.58-7.95 722.88-5.1 725.2-3.58 727.53-2.05 730.63-2.05L730.63-2.05Q731.63-2.05 732.63-2.18 733.63-2.3 734.63-2.6L734.63-2.6 734.63-10.05 730.83-11.9 730.83-12.6 743.53-12.6 743.53-11.9 740.43-9.95 740.43-3.1Q739.18-2 737.33-1.2 735.48-0.4 733.38 0.05 731.28 0.5 729.28 0.5Z" opacity="1" transform="matrix(1,0,0,1,0,0)" fill="#111111" class="undefined-text-1" data-fill-palette-color="quaternary" id="text-1"></path></svg></g></svg></g></svg></g></svg></g><g></g></svg></g><defs></defs></svg><rect width="356.12052" height="84.03274243994358" fill="none" stroke="none" visibility="hidden"></rect></g></svg></g></svg>